# xmcd
#
# Track frame offsets:
#	150
#	17567
#	33190
#	50380
#	62957
#	78735
#	95317
#	112082
#	126285
#	140385
#	156947
#	170530
#	185595
#	200812
#	219185
#
# Disc length: 3126 seconds
#
# Revision: 1
# Processed by: cddbd v1.5.1PL0 Copyright (c) Steve Scherf et al.
# Submitted via: audiograbber 1.83.01
#
DISCID=d50c340f
DTITLE=Various Artist - MM6101
DYEAR=1900
DGENRE=Karaoke
TTITLE0=Shania Twain - Any Man Of Mine
TTITLE1=Brett James - Female Bonding
TTITLE2=Reba McEntire - And Still
TTITLE3=Wade Hayes - Don't Stop
TTITLE4=Shelby Lynne - Slow Me Down
TTITLE5=Diamond Rio - Finish What We Started
TTITLE6=James House - This Is Me Missing You
TTITLE7=Doug Stone - Right To Remain Silent
TTITLE8=Reba McEntire - Climb That Mountain High
TTITLE9=Toby Keith - Big Ol Truck
TTITLE10=Ty England - Should've Asked Her Faster
TTITLE11=Terri Clark - Better Things To Do
TTITLE12=Alabama - She Ain't Your Ordinary Girl
TTITLE13=Alisson Krauss - Baby Now That I've Found You
TTITLE14=Jeff Carson - Not On Your Love
EXTD=
EXTT0=
EXTT1=
EXTT2=
EXTT3=
EXTT4=
EXTT5=
EXTT6=
EXTT7=
EXTT8=
EXTT9=
EXTT10=
EXTT11=
EXTT12=
EXTT13=
EXTT14=
PLAYORDER=
